# xmcd
#
# Track frame offsets:
#	150
#	48077
#	78685
#	101162
#	118545
#	134317
#	150740
#	176752
#	205992
#	223037
#
# Disc length: 3180 seconds
#
# Revision: 3
# Processed by: cddbd v1.5.2PL0 Copyright (c) Steve Scherf et al.
# Submitted via: EasyCDDAExtractor 15.3.0.1
#
DISCID=8d0c6a0a
DTITLE=Pandora - (1985-1998) - CD 2
DYEAR=1998
DGENRE=Latin
TTITLE0=Popurri Pandora (Cuando No Estas Conmigo, Como Una Mariposa, Atrapada,
TTITLE0=Quiereme Mas, Ni Tu Ni Yo, Dejame, Noa Noa)
TTITLE1=Como Te Va Mi Amor
TTITLE2=Una Historia Sin Miedo
TTITLE3=Despues De Ti Que
TTITLE4=El Farsante
TTITLE5=Se Me Olvido Otra Vez
TTITLE6=Amor Eterno
TTITLE7=Popurri Juan Gabriel (Debo Hacerlo, Caray, Querida, Me Nace Del Corazo
TTITLE7=n)
TTITLE8=Con Tal De Verte Feliz
TTITLE9=La Usurpadora
EXTD=
EXTT0=
EXTT1=
EXTT2=
EXTT3=
EXTT4=
EXTT5=
EXTT6=
EXTT7=
EXTT8=
EXTT9=
PLAYORDER=
